<?xml version="1.0" standalone="no"?>
<!DOCTYPE svg PUBLIC "-//W3C//DTD SVG 1.1//EN" "http://www.w3.org/Graphics/SVG/1.1/DTD/svg11.dtd" >
<svg xmlns="http://www.w3.org/2000/svg">
<metadata>Generated by IcoMoon</metadata>
<defs>
<font id="ios7_font" horiz-adv-x="512">
<font-face units-per-em="512" ascent="480" descent="-32" />
<missing-glyph horiz-adv-x="512" />
<glyph unicode="&#x20;" d="" horiz-adv-x="256" />
<glyph unicode="&#xe600;" d="M256 435.2c-113.121 0-204.8-91.678-204.8-204.8s91.678-204.8 204.8-204.8 204.8 91.678 204.8 204.8-91.678 204.8-204.8 204.8zM267.673 230.4l-0.092-0.092 80.62-80.62-11.582-11.582-80.62 80.62-80.62-80.62-11.582 11.582 80.62 80.62-0.092 0.092 0.092 0.092-80.62 80.615 11.582 11.582 80.62-80.615 80.62 80.62 11.582-11.582-80.62-80.62 0.092-0.092z" />
<glyph unicode="&#xe601;" d="M404.434 378.834c-81.987 81.986-214.881 81.986-296.868 0s-81.987-214.882 0-296.868c81.987-81.986 214.881-81.986 296.868 0s81.987 214.882 0 296.868zM392.56 93.839c-75.295-75.295-197.821-75.295-273.122 0s-75.294 197.822 0 273.122c75.294 75.295 197.822 75.295 273.122 0s75.295-197.827 0-273.122zM338.729 325.397l-83.123-83.123-82.729 82.729-11.874-11.873 82.729-82.729-82.729-82.729 11.874-11.873 82.729 82.729 83.123-83.123 11.873 11.873-83.123 83.123 83.123 83.123z" />
<glyph unicode="&#xe602;" d="M256 435.2c-113.121 0-204.8-91.678-204.8-204.8s91.678-204.8 204.8-204.8 204.8 91.678 204.8 204.8-91.678 204.8-204.8 204.8zM305.449 218.818l-80.717-80.717-11.582 11.582 80.712 80.717-80.717 80.717 11.582 11.582 92.314-92.298-11.591-11.582z" />
<glyph unicode="&#xe603;" d="M307.942 230.4l-92.298 92.298-11.587-11.587 80.712-80.711-80.712-80.712 11.587-11.587 80.712 80.712zM256 435.2c-113.121 0-204.8-91.678-204.8-204.8s91.678-204.8 204.8-204.8c113.121 0 204.8 91.678 204.8 204.8s-91.678 204.8-204.8 204.8zM256 41.984c-103.89 0-188.416 84.526-188.416 188.416s84.526 188.416 188.416 188.416c103.89 0 188.416-84.526 188.416-188.416s-84.526-188.416-188.416-188.416z" />
<glyph unicode="&#xe604;" d="M204.058 230.4l92.298-92.298 11.587 11.587-80.712 80.712 80.712 80.711-11.587 11.587-80.712-80.711zM256 25.6c113.121 0 204.8 91.678 204.8 204.8s-91.678 204.8-204.8 204.8c-113.121 0-204.8-91.678-204.8-204.8s91.678-204.8 204.8-204.8zM256 418.816c103.89 0 188.416-84.526 188.416-188.416s-84.526-188.416-188.416-188.416c-103.89 0-188.416 84.526-188.416 188.416s84.526 188.416 188.416 188.416z" />
<glyph unicode="&#xe605;" d="M256 25.6c113.121 0 204.8 91.678 204.8 204.8s-91.678 204.8-204.8 204.8-204.8-91.678-204.8-204.8 91.678-204.8 204.8-204.8zM206.551 241.982l80.717 80.717 11.582-11.582-80.712-80.717 80.717-80.717-11.582-11.582-92.314 92.298 11.591 11.582z" />
<glyph unicode="&#xe606;" d="M266.245 424.96v-221.757l79.36 79.36 14.479-14.484-104.084-104.079-104.079 104.080 14.48 14.484 79.36-79.36v221.757h-194.56v-389.12h409.6v389.12z" />
<glyph unicode="&#xe607;" d="M426.67 409.323h-341.34c-18.846 0-34.13-15.283-34.13-34.13v-221.952c0-18.846 15.283-34.13 34.13-34.13h239.554l67.635-67.635v67.635h34.156c18.846 0 34.13 15.283 34.13 34.13v221.952c-0.005 18.846-15.288 34.13-34.135 34.13zM443.735 153.241c0-9.406-7.659-17.065-17.065-17.065h-51.221v-43.505l-43.5 43.505h-246.62c-9.406 0-17.065 7.654-17.065 17.065v221.952c0 9.406 7.659 17.065 17.065 17.065h341.34c9.406 0 17.065-7.655 17.065-17.065v-221.952zM273.065 264.162c0-9.425-7.64-17.065-17.065-17.065s-17.065 7.64-17.065 17.065c0 9.424 7.64 17.065 17.065 17.065s17.065-7.64 17.065-17.065zM341.325 264.162c0-9.425-7.64-17.065-17.065-17.065s-17.065 7.64-17.065 17.065c0 9.424 7.64 17.065 17.065 17.065s17.065-7.64 17.065-17.065zM206.413 264.162c0-9.425-7.64-17.065-17.065-17.065s-17.065 7.64-17.065 17.065c0 9.424 7.64 17.065 17.065 17.065s17.065-7.64 17.065-17.065z" />
<glyph unicode="&#xe608;" d="M426.67 409.323h-341.34c-18.846 0-34.13-15.283-34.13-34.13v-221.957c0-18.846 15.283-34.13 34.13-34.13h239.554l67.635-67.635v67.635h34.156c18.846 0 34.13 15.283 34.13 34.13v221.957c-0.005 18.846-15.288 34.13-34.135 34.13zM189.348 247.091c-9.426 0-17.065 7.639-17.065 17.065 0 9.416 7.639 17.065 17.065 17.065s17.065-7.649 17.065-17.065c0-9.421-7.639-17.065-17.065-17.065zM256 247.091c-9.426 0-17.065 7.639-17.065 17.065 0 9.416 7.639 17.065 17.065 17.065s17.065-7.649 17.065-17.065c0-9.421-7.639-17.065-17.065-17.065zM324.26 247.091c-9.426 0-17.065 7.639-17.065 17.065 0 9.416 7.639 17.065 17.065 17.065s17.065-7.649 17.065-17.065c0-9.421-7.644-17.065-17.065-17.065z" />
<glyph unicode="&#xe609;" d="M235.806 216.192c0.317-0.399 0.768-0.738 1.121-1.122 4.511-5.596 11.331-9.247 19.072-9.247 13.568 0 24.576 10.993 24.576 24.576 0 7.214-3.17 13.63-8.094 18.125-0.64 0.722-1.234 1.454-2.176 2.176l-99.313 75.571c-2.898 2.222-7.055 2.334-10.082 0-3.614-2.786-4.291-7.966-1.506-11.587l76.4-98.494zM256 435.185c-2.688 0-5.31-0.302-7.966-0.4v-8.494h-0.226v-89.374h16.384v81.469c100.096-4.337 180.224-86.866 180.224-187.986 0-103.89-84.51-188.4-188.416-188.4s-188.416 84.51-188.416 188.401c0 51.953 21.136 99.056 55.266 133.166l-11.648 11.648c-37.074-37.053-60.002-88.254-60.002-144.814 0-113.106 91.678-204.785 204.8-204.785s204.8 91.678 204.8 204.785c0 113.106-91.678 204.784-204.8 204.784z" />
<glyph unicode="&#xe60a;" d="M256 435.2c-113.106 0-204.8-91.694-204.8-204.8s91.694-204.8 204.8-204.8 204.8 91.694 204.8 204.8c0 113.106-91.694 204.8-204.8 204.8zM160.911 326.272c3.026 2.334 7.184 2.222 10.082 0l99.313-75.566c0.942-0.722 1.536-1.454 2.176-2.176 4.925-4.495 8.094-10.916 8.094-18.13 0-13.584-11.008-24.576-24.576-24.576-7.742 0-14.561 3.646-19.072 9.247-0.353 0.384-0.798 0.722-1.121 1.122l-76.4 98.499c-2.78 3.614-2.109 8.796 1.506 11.582zM256 42.23c-104.054 0-188.416 84.357-188.416 188.416 0 52.029 21.090 99.133 55.184 133.232l11.648-11.648c-31.15-31.15-50.447-74.158-50.447-121.585 0-94.858 77.174-172.032 172.032-172.032s172.032 77.174 172.032 172.032c0 92.099-72.802 167.296-163.84 171.618v-65.024h-16.384v81.618c2.719 0.118 5.442 0.21 8.192 0.21 104.054 0 188.416-84.362 188.416-188.416 0-104.059-84.362-188.421-188.416-188.421z" />
<glyph unicode="&#xe60b;" d="M429.291 356.429l-78.766 78.771h-173.297v-63.017h-94.52v-346.583h252.063v63.017h94.525v267.812zM350.526 412.923l56.494-56.494h-56.494v56.494zM98.463 41.354v315.075h141.783v-78.771h78.771v-236.309h-220.554zM256 349.906l56.494-56.494h-56.494v56.494zM334.771 104.371v189.046l-78.771 78.766h-63.017v47.262h141.783v-78.771h78.771v-236.308h-78.766z" />
<glyph unicode="&#xe60c;" d="M256 293.417h78.771l-78.771 78.766zM240.246 293.417v78.766h-157.537v-346.583h252.063v252.063h-94.525zM350.526 435.2v-78.771h78.766zM334.771 356.429v78.771h-157.537v-47.262h85.289l4.618-4.613 83.385-83.385v-211.323h78.766v252.058h-94.52z" />
<glyph unicode="&#xe60d;" d="M143.36 79.36h84.48v302.080h-84.48v-302.080zM168.96 355.84h33.28v-250.88h-33.28v250.88zM284.16 381.44v-302.080h84.48v302.080h-84.48zM343.040 104.96h-33.28v250.88h33.28v-250.88z" />
<glyph unicode="&#xe60e;" d="M143.36 79.36h84.48v302.080h-84.48v-302.080zM284.16 381.44v-302.080h84.48v302.080h-84.48z" />
<glyph unicode="&#xe60f;" d="M51.2 435.2v-409.6h409.6v409.6h-409.6zM443.735 418.135v-76.8h-375.47v76.8h375.47zM68.265 42.665v281.6h375.465v-281.6h-375.465zM179.19 392.535h25.605v-25.6h-25.605v25.6zM307.2 392.535h25.6v-25.6h-25.6v25.6zM197.54 263.547c-3.056-20.767-12.933-21.125-32.809-21.842l-3.082-0.118v-14.474h33.674v-94.659h17.863v133.827h-15.248l-0.399-2.734zM298.281 223.324c-7.931 0-16.082-2.591-22.543-6.933l6.072 31.289h56.264v16.958h-69.57l-13.578-72.469h15.442l0.942 1.474c5.401 8.407 15.242 13.635 25.697 13.635 17.024 0 29.384-12.59 29.384-29.931 0-15.683-9.841-31.565-28.651-31.565-16.077 0-27.632 10.849-28.109 26.394l-0.103 3.098h-17.849l0.077-3.277c0.573-25.282 18.683-42.266 45.066-42.266 26.599 0 47.432 20.357 47.432 46.341 0.005 28.262-18.468 47.252-45.972 47.252z" />
<glyph unicode="&#xe610;" d="M51.2 435.2v-409.6h409.6v409.6h-409.6zM307.2 392.535h25.6v-25.6h-25.6v25.6zM179.195 392.535h25.605v-25.6h-25.605v25.6zM443.735 42.665h-375.47v281.6h375.465v-281.6zM195.328 132.459h17.863v133.822h-15.252l-0.399-2.734c-3.056-20.767-12.933-21.125-32.809-21.842l-3.082-0.118v-14.474h33.674v-94.654zM297.743 145.776c-16.077 0-27.632 10.849-28.109 26.394l-0.103 3.098h-17.849l0.077-3.277c0.573-25.282 18.683-42.266 45.066-42.266 26.599 0 47.432 20.357 47.432 46.341 0 28.267-18.473 47.257-45.972 47.257-7.931 0-16.082-2.591-22.543-6.933l6.072 31.294h56.259v16.958h-69.57l-13.578-72.474h15.442l0.942 1.474c5.401 8.407 15.242 13.635 25.697 13.635 17.024 0 29.384-12.59 29.384-29.931 0.005-15.688-9.841-31.57-28.647-31.57z" />
<glyph unicode="&#xe611;" d="M256 435.2c-113.116 0-204.8-91.684-204.8-204.8s91.684-204.8 204.8-204.8 204.8 91.684 204.8 204.8c0 113.121-91.684 204.8-204.8 204.8zM256 418.135c103.516 0 187.735-84.219 187.735-187.735 0-45.543-16.317-87.342-43.397-119.885-18.719 7.818-62.899 23.147-90.25 31.227-2.334 0.732-2.698 0.85-2.698 10.558 0 8.018 3.303 16.092 6.518 22.928 3.481 7.424 7.613 19.906 9.098 31.109 4.147 4.818 9.8 14.315 13.435 32.425 3.185 15.959 1.7 21.765-0.414 27.218-0.215 0.574-0.45 1.142-0.615 1.71-0.798 3.743 0.297 23.184 3.031 38.267 1.884 10.347-0.481 32.358-14.736 50.565-9.001 11.51-26.219 25.636-57.666 27.602l-17.26-0.021c-30.919-1.95-48.149-16.077-57.149-27.587-14.249-18.207-16.614-40.217-14.73-50.56 2.75-15.094 3.835-34.535 3.052-38.201-0.169-0.64-0.399-1.208-0.635-1.782-2.099-5.447-3.6-11.259-0.399-27.218 3.614-18.11 9.267-27.607 13.435-32.425 1.464-11.202 5.601-23.685 9.098-31.109 2.55-5.433 3.753-12.825 3.753-23.276 0-9.707-0.369-9.825-2.55-10.517-28.283-8.351-73.298-24.617-90.082-31.964-27.618 32.691-44.298 74.89-44.298 120.935-0.010 103.522 84.209 187.735 187.725 187.735zM124.933 96.164c19.216 7.844 57.533 21.514 82.698 28.949 14.633 4.618 14.633 16.942 14.633 26.844 0 8.207-0.569 20.306-5.366 30.541-3.303 7.010-7.065 19.026-7.9 28.431-0.185 2.202-1.219 4.234-2.882 5.683-2.417 2.115-7.332 9.866-10.465 25.498-2.483 12.375-1.434 15.083-0.415 17.7 0.435 1.116 0.85 2.217 1.183 3.456 2.048 7.49-0.236 32.102-2.719 45.752-1.085 5.934 0.281 22.789 11.382 36.992 9.948 12.723 25.017 19.814 44.232 21.043l16.185 0.015c19.733-1.244 34.8-8.336 44.764-21.058 11.1-14.203 12.452-31.058 11.366-36.997-2.468-13.645-4.767-38.251-2.719-45.732 0.353-1.25 0.748-2.35 1.183-3.466 1.019-2.616 2.068-5.325-0.399-17.7-3.134-15.631-8.069-23.383-10.486-25.498-1.649-1.449-2.683-3.481-2.882-5.683-0.819-9.411-4.582-21.427-7.885-28.432-3.784-8.043-8.135-18.75-8.135-30.192 0-9.902 0-22.226 14.781-26.885 24.084-7.117 62.582-20.342 82.918-28.339-33.935-33.618-80.589-54.421-132.004-54.421-50.949 0-97.198 20.434-131.067 53.499z" />
<glyph unicode="&#xe612;" d="M256 435.2c-113.106 0-204.8-91.684-204.8-204.8s91.694-204.8 204.8-204.8c113.116 0 204.8 91.684 204.8 204.8s-91.684 204.8-204.8 204.8zM400.343 110.515c-18.719 7.818-62.909 23.147-90.25 31.227-2.34 0.732-2.698 0.85-2.698 10.558 0 8.018 3.292 16.092 6.507 22.922 3.492 7.424 7.623 19.906 9.098 31.109 4.158 4.818 9.81 14.315 13.435 32.425 3.19 15.959 1.7 21.765-0.409 27.218-0.226 0.574-0.455 1.142-0.615 1.71-0.798 3.743 0.292 23.184 3.026 38.267 1.889 10.347-0.476 32.358-14.725 50.565-9.001 11.51-26.224 25.636-57.677 27.602l-17.255-0.016c-30.915-1.95-48.144-16.077-57.139-27.582-14.249-18.207-16.614-40.217-14.73-50.56 2.739-15.089 3.835-34.535 3.052-38.201-0.174-0.64-0.41-1.208-0.635-1.782-2.109-5.447-3.6-11.259-0.41-27.218 3.625-18.11 9.278-27.607 13.435-32.425 1.475-11.202 5.612-23.685 9.098-31.109 2.56-5.433 3.748-12.825 3.748-23.276 0-9.707-0.358-9.825-2.55-10.517-28.283-8.351-73.303-24.617-90.087-31.964-27.607 32.691-44.298 74.89-44.298 120.935 0 103.516 84.219 187.735 187.735 187.735s187.735-84.219 187.735-187.735c0-45.548-16.317-87.347-43.392-119.89z" />
<glyph unicode="&#xe613;" d="M173.998 232.238l-122.798 122.793v-245.591zM269.543 186.895l174.587 174.577h-376.202l174.592-174.577c7.219-7.214 19.809-7.214 27.023 0zM326.471 220.656l-45.342-45.343c-6.697-6.702-15.616-10.399-25.098-10.399s-18.401 3.697-25.098 10.399l-45.343 45.337-121.329-121.323h383.55l-121.339 121.329zM338.063 232.238l122.736-122.732v245.468z" />
<glyph unicode="&#xe614;" d="M444.135 361.472h-392.935v-262.144h409.6v262.144h-16.666zM427.75 345.088l-158.238-158.238c-7.214-7.214-19.81-7.214-27.024 0l-158.264 158.238h343.526zM67.584 338.56l106.383-106.368-106.383-106.384v212.752zM80.656 115.712l104.903 104.889 45.343-45.337c6.697-6.702 15.616-10.399 25.098-10.399s18.401 3.697 25.098 10.399l45.343 45.342 104.894-104.894h-350.679zM444.416 125.803l-106.383 106.389 106.384 106.394v-212.782z" />
<glyph unicode="&#xe615;" d="M409.6 219.796h-143.678v-142.997h-20.526v142.996h-142.996v20.526h142.996v143.678h20.526v-143.678h143.678z" />
<glyph unicode="&#xe616;" d="M372.111 331.515l-101.596-101.596 101.11-101.115-14.51-14.515-101.115 101.115-101.115-101.115-14.51 14.515 101.11 101.115-101.596 101.596 14.515 14.51 101.596-101.591 101.596 101.591z" />
<glyph unicode="&#xe617;" d="M420.572 435.2c-20.163 0-36.572-16.399-36.572-36.557 0-12.708 6.528-23.906 16.394-30.464l-69.15-182.256c-1.915 0.313-3.84 0.594-5.837 0.594-8.765 0-16.707-3.231-23.014-8.387l-69.192 57.15c2.729 5.12 4.418 10.87 4.418 17.065 0 20.162-16.404 36.572-36.572 36.572-20.162 0-36.572-16.404-36.572-36.572 0-10.89 4.885-20.588 12.472-27.295l-73.728-128.42c-3.722 1.28-7.634 2.12-11.786 2.12-20.173 0-36.578-16.399-36.578-36.557 0-20.178 16.41-36.592 36.578-36.592s36.567 16.414 36.567 36.592c0 10.752-4.751 20.327-12.165 27.029l73.81 128.558c3.614-1.198 7.399-2.007 11.407-2.007 8.679 0 16.548 3.164 22.83 8.228l69.264-57.206c-2.658-5.069-4.306-10.742-4.306-16.85 0-20.163 16.409-36.572 36.572-36.572s36.572 16.409 36.572 36.572c0 12.979-6.841 24.32-17.055 30.822l69.043 181.96c2.151-0.394 4.342-0.666 6.605-0.666 20.163 0 36.572 16.415 36.572 36.588-0.005 20.152-16.414 36.551-36.577 36.551z" />
<glyph unicode="&#xe618;" d="M315.735 200.535h-17.070v-17.070h-85.33v17.070h-162.135v-153.6h409.6v153.6h-17.065zM315.735 371.2v42.665h-119.47v-42.665h-145.065v-153.6h162.13v17.065h85.335v-17.065h162.135v153.6h-145.065zM213.335 396.8h85.335v-25.6h-85.335v25.6z" />
<glyph unicode="&#xe619;" d="M407.705 336.594v60.682h-356.505v-273.070h53.094v-60.682h356.505v273.070h-53.094zM66.371 139.376v242.729h326.164v-45.511h-288.24v-197.218h-37.924zM445.63 78.695h-326.164v242.729h326.164v-242.729z" />
<glyph unicode="&#xe61a;" d="M425.764 336.594h-321.469v-273.070h356.505v273.070zM392.535 351.764h15.171v45.511h-356.505v-273.070h37.924v227.559h274.698z" />
<glyph unicode="&#xe61b;" d="M438.046 366.935h-364.094c-12.565 0-22.754-10.194-22.754-22.753v-227.554c0-12.58 10.194-22.753 22.754-22.753h364.089c12.565 0 22.753 10.178 22.753 22.753v227.548c0.005 12.565-10.189 22.759-22.748 22.759zM66.371 306.253h379.259v-30.341h-379.259v30.341zM445.63 116.623c0-4.183-3.399-7.582-7.582-7.582h-364.094c-4.183 0-7.582 3.399-7.582 7.582v144.118h379.259v-144.118zM66.371 321.423v22.754c0 4.183 3.4 7.582 7.582 7.582h364.089c4.183 0 7.582-3.399 7.582-7.582v-22.754h-379.254zM96.712 154.547h151.706v-15.171h-151.706v15.171zM96.712 200.059h91.024v-15.171h-91.023v15.171zM369.557 139.376h30.802c8.243 0 14.935 6.579 14.935 14.71v0.911c0 8.125-6.687 14.72-14.935 14.72h-30.802c-8.259 0-14.95-6.594-14.95-14.72v-0.911c0-8.13 6.692-14.71 14.95-14.71z" />
<glyph unicode="&#xe61c;" d="M438.046 366.935h-364.094c-12.565 0-22.754-10.194-22.754-22.753v-30.336h409.6v30.336c0 12.559-10.194 22.753-22.753 22.753zM66.371 268.324h-15.171v-151.701c0-12.58 10.194-22.753 22.754-22.753h364.089c12.565 0 22.753 10.178 22.753 22.753v151.701h-394.425zM96.712 200.059h91.024v-15.171h-91.023v15.171zM248.417 139.376h-151.706v15.171h151.706v-15.171zM415.288 154.087c0-8.13-6.687-14.71-14.935-14.71h-30.802c-8.259 0-14.95 6.579-14.95 14.71v0.911c0 8.125 6.687 14.72 14.95 14.72h30.802c8.243 0 14.935-6.594 14.935-14.72v-0.911z" />
<glyph unicode="&#xe61d;" d="M79.309 25.6h353.383v307.2h-353.382v-307.2zM342.989 262.451v30.72h40.96v-40.96h-40.96v10.24zM342.989 171.827v30.72h40.96v-40.96h-40.96v10.24zM342.989 81.101v30.72h40.96v-40.96h-40.96v10.24zM235.571 262.451v30.72h40.96v-40.96h-40.96v10.24zM235.571 171.827v30.72h40.96v-40.96h-40.96v10.24zM235.571 81.101v30.72h40.96v-40.96h-40.96v10.24zM128.051 262.451v30.72h40.96v-40.96h-40.96v10.24zM128.051 171.827v30.72h40.96v-40.96h-40.96v10.24zM128.051 81.101v30.72h40.96v-40.96h-40.96v10.24zM79.309 435.2h353.383v-67.308h-353.382v67.308z" />
<glyph unicode="&#xe61e;" d="M417.331 317.44v-276.48h-322.663v276.48h322.663zM432.691 332.8h-353.382v-307.2h353.382v307.2zM417.331 419.84v-36.587h-322.663v36.587h322.663zM432.691 435.2h-353.382v-67.308h353.382v67.308zM368.589 277.811v-10.24h-10.24v10.24h10.24zM383.949 293.171h-40.96v-40.96h40.96v40.96zM368.589 187.187v-10.24h-10.24v10.24h10.24zM383.949 202.547h-40.96v-40.96h40.96v40.96zM368.589 96.461v-10.24h-10.24v10.24h10.24zM383.949 111.821h-40.96v-40.96h40.96v40.96zM261.171 277.811v-10.24h-10.24v10.24h10.24zM276.531 293.171h-40.96v-40.96h40.96v40.96zM261.171 187.187v-10.24h-10.24v10.24h10.24zM276.531 202.547h-40.96v-40.96h40.96v40.96zM261.171 96.461v-10.24h-10.24v10.24h10.24zM276.531 111.821h-40.96v-40.96h40.96v40.96zM153.651 277.811v-10.24h-10.24v10.24h10.24zM169.011 293.171h-40.96v-40.96h40.96v40.96zM153.651 187.187v-10.24h-10.24v10.24h10.24zM169.011 202.547h-40.96v-40.96h40.96v40.96zM153.651 96.461v-10.24h-10.24v10.24h10.24zM169.011 111.821h-40.96v-40.96h40.96v40.96z" />
<glyph unicode="&#xe61f;" d="M315.735 371.2v42.665h-119.47v-42.665h-145.065v-324.265h409.6v324.265h-145.065zM213.335 396.8h85.335v-25.6h-85.335v25.6zM196.265 354.135h247.465v-136.535h-128v34.135h-119.465v-34.135h-128v136.535h128zM298.665 234.665v-51.2h-85.33v51.2h85.33zM68.265 64v136.535h128v-34.135h119.465v34.135h128v-136.535h-375.465z" />
<glyph unicode="&#xe620;" d="M256 434.846l-81.782-81.776v32.712h-65.424v-98.135l-57.595-57.6 11.566-11.566 193.234 193.239 193.234-193.234 11.566 11.561-204.8 204.8zM125.153 369.423h32.712v-32.712l-32.712-32.712v65.423zM108.795 222.224v-196.27h114.493v114.488h65.423v-114.493h114.493v196.275l-147.205 147.2-147.205-147.2zM386.846 42.306h-81.776v114.493h-98.14v-114.493h-81.776v173.143l130.846 130.846 130.846-130.846v-173.143z" />
<glyph unicode="&#xe621;" d="M256 434.846l-81.782-81.776v32.712h-65.424v-98.135l-57.595-57.6 11.566-11.561 193.234 193.234 193.234-193.234 11.566 11.561zM108.795 222.224v-196.27h114.493v114.488h65.423v-114.488h114.493v196.27l-147.205 147.2z" />
<glyph unicode="&#xe622;" d="M256 353.28c-74.865 0-133.227-46.858-204.8-122.834 61.666-64.963 113.413-122.926 204.8-122.926s158.551 73.375 204.8 121.549c-47.339 56.438-114.514 124.211-204.8 124.211zM256 121.175c-81.126 0-130.099 50.314-185.974 109.256 66.478 69.32 119.342 109.194 185.974 109.194 78.889 0 140.539-56.889 186.414-110.008-45.113-47.038-106.194-108.442-186.414-108.442zM256 312.31c-45.174 0-81.92-36.746-81.92-81.915s36.746-81.915 81.92-81.915 81.92 36.752 81.92 81.92-36.746 81.91-81.92 81.91zM256 162.14c-37.642 0-68.265 30.623-68.265 68.26 0 37.642 30.628 68.26 68.265 68.26s68.265-30.622 68.265-68.26c0-37.642-30.623-68.26-68.265-68.26zM256 278.185c-26.347 0-47.785-21.438-47.785-47.785s21.438-47.785 47.785-47.785c26.348 0 47.785 21.442 47.785 47.785 0 26.348-21.438 47.785-47.785 47.785zM256 196.265c-18.821 0-34.135 15.314-34.135 34.135s15.314 34.135 34.135 34.135 34.135-15.314 34.135-34.135c0-18.821-15.314-34.135-34.135-34.135z" />
<glyph unicode="&#xe623;" d="M256 353.28c-74.865 0-133.227-46.858-204.8-122.834 61.666-64.958 113.413-122.926 204.8-122.926s158.551 73.38 204.8 121.554c-47.339 56.432-114.514 124.206-204.8 124.206zM256 148.485c-45.174 0-81.92 36.746-81.92 81.915s36.746 81.915 81.92 81.915 81.92-36.746 81.92-81.915-36.746-81.915-81.92-81.915zM256 278.185c-26.347 0-47.785-21.438-47.785-47.785s21.438-47.785 47.785-47.785c26.348 0 47.785 21.438 47.785 47.785s-21.438 47.785-47.785 47.785z" />
<glyph unicode="&#xe624;" d="M256 435.2c-113.106 0-204.8-91.689-204.8-204.8s91.694-204.8 204.8-204.8 204.8 91.689 204.8 204.8-91.694 204.8-204.8 204.8zM375.552 285.87l-140.201-135.952c-2.386-2.314-5.474-3.466-8.55-3.466-3.143 0-6.287 1.198-8.689 3.599l-54.625 54.63c-4.798 4.798-4.798 12.575 0 17.377 4.803 4.798 12.575 4.798 17.377 0l46.075-46.065 131.512 127.529c4.864 4.72 12.631 4.608 17.377-0.272 4.716-4.874 4.598-12.651-0.276-17.382z" />
<glyph unicode="&#xe625;" d="M256 435.2c-113.106 0-204.8-91.689-204.8-204.8s91.694-204.8 204.8-204.8c113.106 0 204.8 91.689 204.8 204.8s-91.694 204.8-204.8 204.8zM256 41.984c-103.895 0-188.416 84.526-188.416 188.416s84.521 188.416 188.416 188.416c103.895 0 188.416-84.526 188.416-188.416s-84.521-188.416-188.416-188.416zM358.446 303.519l-131.507-127.529-46.070 46.065c-4.803 4.803-12.575 4.803-17.377 0-4.803-4.798-4.803-12.575 0-17.377l54.62-54.62c2.401-2.401 5.545-3.599 8.689-3.599 3.082 0 6.169 1.152 8.55 3.466l140.201 135.946c4.874 4.726 4.992 12.503 0.272 17.377-4.741 4.88-12.508 4.992-17.377 0.272z" />
<glyph unicode="&#xe626;" d="M181.335 231.194l-12.068-12.068 86.733-86.733 86.733 86.733-12.068 12.068-66.13-66.135v270.142h-17.070v-270.142zM298.665 349.865v-17.065h110.935v-290.135h-307.2v290.135h110.935v17.065h-128v-324.265h341.33v324.265z" />
<glyph unicode="&#xe627;" d="M152.197 371.415l240.446-140.365-240.446-140.365v280.73zM135.952 399.36v-335.97l287.882 168.31-287.882 167.66zM135.071 399.36v-337.92l289.644 168.96z" />
<glyph unicode="&#xe628;" d="M152.197 371.415l240.446-140.365-240.446-140.365v280.73zM135.952 399.36v-335.97l287.882 168.31-287.882 167.66z" />
<glyph unicode="&#xe629;" d="M420.572 435.2c20.163 0 36.572-16.399 36.577-36.551 0-20.173-16.409-36.587-36.572-36.587-2.263 0-4.454 0.271-6.605 0.665l-69.043-181.959c10.214-6.502 17.055-17.843 17.055-30.822 0-20.163-16.409-36.572-36.572-36.572s-36.572 16.409-36.572 36.572c0 6.108 1.649 11.781 4.306 16.85l-69.263 57.206c-6.282-5.064-14.151-8.228-22.83-8.228-4.009 0-7.792 0.809-11.407 2.007l-73.81-128.558c7.414-6.702 12.165-16.276 12.165-27.029 0-20.178-16.4-36.593-36.567-36.593s-36.578 16.414-36.578 36.592c0 20.158 16.404 36.557 36.578 36.557 4.153 0 8.064-0.839 11.786-2.12l73.728 128.42c-7.588 6.707-12.472 16.404-12.472 27.294 0 20.167 16.41 36.572 36.572 36.572 20.167 0 36.572-16.41 36.572-36.572 0-6.195-1.69-11.945-4.418-17.065l69.191-57.15c6.308 5.156 14.249 8.387 23.014 8.387 1.997 0 3.922-0.281 5.837-0.594l69.15 182.257c-9.866 6.558-16.394 17.756-16.394 30.464 0 20.157 16.409 36.557 36.572 36.557zM420.572 450.56c-28.636 0-51.932-23.291-51.932-51.917 0-13.118 4.935-25.538 13.604-35.001l-61.455-161.971c-5.959-0.538-11.719-2.115-17.122-4.67l-52.209 43.126c1.014 4.009 1.526 8.089 1.526 12.221 0 28.636-23.296 51.932-51.932 51.932s-51.932-23.296-51.932-51.932c0-10.429 3.22-20.557 9.083-29.107l-62.756-109.307c-1.341 0.113-2.672 0.174-4.014 0.174-28.636 0-51.938-23.291-51.938-51.917 0-28.647 23.301-51.952 51.938-51.952 28.631 0 51.927 23.306 51.927 51.952 0 10.26-3.133 20.26-8.832 28.738l62.94 109.619c1.198-0.092 2.396-0.138 3.584-0.138 7.506 0 14.776 1.623 21.499 4.762l52.393-43.264c-0.973-3.927-1.464-7.926-1.464-11.966 0-28.636 23.296-51.932 51.932-51.932s51.932 23.296 51.932 51.932c0 13.425-5.151 26.046-14.188 35.568l61.214 161.326c26.87 1.951 48.138 24.443 48.138 51.809-0.005 28.626-23.306 51.912-51.938 51.912v0z" />
<glyph unicode="&#xe62a;" d="M420.572 435.2c-20.163 0-36.572-16.399-36.572-36.557 0-12.708 6.528-23.906 16.394-30.464l-69.15-182.256c-1.915 0.313-3.84 0.594-5.837 0.594-8.765 0-16.707-3.231-23.014-8.387l-69.192 57.15c2.729 5.12 4.418 10.87 4.418 17.065 0 20.162-16.404 36.572-36.572 36.572-20.162 0-36.572-16.404-36.572-36.572 0-10.89 4.885-20.588 12.472-27.295l-73.728-128.42c-3.722 1.28-7.634 2.12-11.786 2.12-20.173 0-36.578-16.399-36.578-36.557 0-20.178 16.41-36.592 36.578-36.592s36.567 16.414 36.567 36.592c0 10.752-4.751 20.327-12.165 27.029l73.81 128.558c3.614-1.198 7.399-2.007 11.407-2.007 8.679 0 16.548 3.164 22.83 8.228l69.264-57.206c-2.658-5.069-4.306-10.742-4.306-16.85 0-20.163 16.409-36.572 36.572-36.572s36.572 16.409 36.572 36.572c0 12.979-6.841 24.32-17.055 30.822l69.043 181.96c2.151-0.394 4.342-0.666 6.605-0.666 20.163 0 36.572 16.415 36.572 36.588-0.005 20.152-16.414 36.551-36.577 36.551z" />
<glyph unicode="&#xe62b;" d="M452.608 427.387c-5.212 5.207-12.053 7.813-18.882 7.813-6.841 0-13.671-2.606-18.873-7.813l-78.546-78.536v14.879h-284.743v-338.13h338.13v284.739h-16.368l79.283 79.293c10.44 10.409 10.44 27.33 0 37.755zM371.901 43.397h-302.541v302.536h264.038l-139.464-139.453v-38.512h37.033l140.928 140.949v-265.518zM440.028 402.212l-216.423-216.453h-11.868v13.348l215.71 215.706c2.258 2.258 4.9 2.591 6.282 2.591s4.034-0.338 6.298-2.606c2.279-2.268 2.616-4.921 2.616-6.298s-0.343-4.009-2.616-6.288z" />
<glyph unicode="&#xe62c;" d="M452.608 427.387c-5.212 5.207-12.053 7.813-18.882 7.813-6.841 0-13.671-2.606-18.873-7.813l-220.918-220.918v-38.502h37.038l221.635 221.666c10.435 10.409 10.435 27.33 0 37.755zM384.481 296.33l-146.14-146.156h-62.203v63.678l149.878 149.878h-274.452v-338.13h338.13v275.938l-3.815-3.815z" />
<glyph unicode="&#xe62d;" d="M256 435.2c-99.84 0-181.248-38.912-181.248-86.528v-236.544c0-47.616 81.408-86.528 181.248-86.528s181.248 38.912 181.248 86.528v236.544c0 47.616-81.408 86.528-181.248 86.528zM256 419.328c97.28 0 165.376-37.376 165.376-70.656s-68.096-70.656-165.376-70.656c-97.28 0-165.376 37.376-165.376 70.656s68.096 70.656 165.376 70.656zM421.376 128v-15.872c0-33.28-68.096-70.656-165.376-70.656s-165.376 37.376-165.376 70.656v43.52c28.16-30.208 91.648-51.2 165.376-51.2s137.216 20.992 165.376 51.2v-27.648zM421.376 190.976c0-33.28-68.096-70.656-165.376-70.656s-165.376 37.376-165.376 70.656v43.52c28.16-30.208 91.648-51.2 165.376-51.2s137.216 20.992 165.376 51.2v-43.52zM421.376 269.824c0-33.28-68.096-70.656-165.376-70.656s-165.376 37.376-165.376 70.656v43.52c28.16-30.208 91.648-51.2 165.376-51.2s137.216 20.992 165.376 51.2v-43.52z" />
<glyph unicode="&#xe62e;" d="M256 281.6c105.472 0 179.2 40.448 179.2 76.8s-73.728 76.8-179.2 76.8c-105.472 0-179.2-40.448-179.2-76.8s73.728-76.8 179.2-76.8zM76.8 149.504v-47.104c0-36.352 73.728-76.8 179.2-76.8s179.2 40.448 179.2 76.8v47.104c-30.72-32.768-99.328-55.808-179.2-55.808s-148.48 23.040-179.2 55.808zM76.8 235.008v-47.104c0-36.352 73.728-76.8 179.2-76.8s179.2 40.448 179.2 76.8v47.104c-30.72-32.768-99.328-55.808-179.2-55.808s-148.48 23.040-179.2 55.808zM76.8 320v-47.104c0-36.352 73.728-76.8 179.2-76.8s179.2 40.448 179.2 76.8v47.104c-30.72-32.768-99.328-55.808-179.2-55.808-79.872 0.512-148.48 23.040-179.2 55.808z" />
<glyph unicode="&#xe62f;" d="M460.8 47.104l-118.272 118.272c23.552 28.672 37.888 65.024 37.888 105.472 0.512 90.624-73.216 164.352-164.352 164.352s-164.864-73.728-164.864-164.864c0-91.136 73.728-164.864 164.864-164.864 39.936 0 76.8 14.336 105.472 37.888l117.76-117.76 21.504 21.504zM68.608 270.336c0 81.408 66.048 147.456 147.456 147.456s147.456-66.048 147.456-147.456-66.048-147.456-147.456-147.456c-81.408 0-147.456 66.048-147.456 147.456z" />
<glyph unicode="&#xe630;" d="M460.8 47.104l-118.272 118.272c23.552 28.672 37.888 65.024 37.888 105.472 0.512 90.624-73.216 164.352-164.352 164.352s-164.864-73.728-164.864-164.864c0-91.136 73.728-164.864 164.864-164.864 39.936 0 76.8 14.336 105.472 37.888l117.76-117.76 21.504 21.504zM68.608 270.336c0 81.408 66.048 147.456 147.456 147.456s147.456-66.048 147.456-147.456-66.048-147.456-147.456-147.456c-81.408 0-147.456 66.048-147.456 147.456zM339.968 271.36c0-69.279-56.161-125.44-125.44-125.44s-125.44 56.161-125.44 125.44c0 69.279 56.161 125.44 125.44 125.44s125.44-56.161 125.44-125.44z" />
<glyph unicode="&#xe631;" d="M279.552 156.672c-19.968 0-39.936 7.68-55.296 23.040l11.776 11.776c24.064-24.064 62.976-24.064 87.040 0l103.424 103.424c24.064 24.064 24.064 62.976 0 87.040l-19.456 19.456c-24.064 24.064-62.976 24.064-87.040 0l-72.704-73.216-11.776 11.264 72.704 72.704c30.208 30.208 79.872 30.208 110.592 0l19.456-19.456c30.208-30.208 30.208-79.872 0-110.592l-103.424-102.4c-15.36-15.36-35.328-23.040-55.296-23.040zM148.48 25.6c-20.992 0-40.448 8.192-55.296 23.040l-19.456 19.456c-30.208 30.208-30.208 79.872 0 110.592l103.424 103.424c30.208 30.208 79.872 30.208 110.592 0l19.456-19.456-11.776-11.776-19.456 19.456c-24.064 24.064-62.976 24.064-87.040 0l-103.424-103.936c-24.064-24.064-24.064-62.976 0-87.040l19.456-19.456c11.776-11.776 27.136-17.92 43.52-17.92s31.744 6.656 43.52 17.92l68.608 68.608 11.776-11.776-68.608-68.096c-14.848-14.848-34.304-23.040-55.296-23.040z" />
<glyph unicode="&#xe632;" d="M51.2 351.744v-303.616h409.6v303.616h-409.6zM445.44 63.488h-378.88v272.896h378.88v-272.896zM81.408 381.952h348.672v-15.36h-348.672v15.36zM112.128 412.672h288.256v-15.36h-288.256v15.36z" />
<glyph unicode="&#xe633;" d="M51.2 351.744h409.6v-303.616h-409.6v303.616zM81.408 381.952h348.672v-15.36h-348.672v15.36zM112.128 412.672h288.256v-15.36h-288.256v15.36z" />
<glyph unicode="&#xe634;" d="M51.2 375.296h409.6v-68.096h-409.6v68.096zM51.2 264.704h409.6v-68.096h-409.6v68.096zM51.2 153.6h409.6v-68.096h-409.6v68.096z" />
<glyph unicode="&#xe635;" d="M445.44 359.936v-37.376h-378.88v37.376h378.88zM460.8 375.296h-409.6v-68.096h409.6v68.096zM445.44 249.344v-37.376h-378.88v37.376h378.88zM460.8 264.704h-409.6v-68.096h409.6v68.096zM445.44 138.24v-37.376h-378.88v37.376h378.88zM460.8 153.6h-409.6v-68.096h409.6v68.096z" />
<glyph unicode="&#xe636;" d="M256 435.2c-113.152 0-204.8-91.648-204.8-204.8s91.648-204.8 204.8-204.8 204.8 91.648 204.8 204.8c0 113.152-91.648 204.8-204.8 204.8zM256 41.984c-103.936 0-188.416 84.48-188.416 188.416s84.48 188.416 188.416 188.416 188.416-84.48 188.416-188.416c0-103.936-84.48-188.416-188.416-188.416zM255.488 337.92c-41.472 0-65.024-25.6-65.024-66.56h17.92c-0.512 29.696 14.848 51.2 46.080 51.2 22.528 0 40.96-15.872 40.96-38.912 0-14.848-8.192-27.136-18.432-36.864-22.016-20.48-27.648-29.696-29.184-57.344h18.432c1.024 25.088 0.512 24.576 22.528 46.592 14.848 13.824 25.088 27.648 25.088 48.64-0.512 33.28-26.624 53.248-58.368 53.248zM272.384 140.288c0-9.048-7.336-16.384-16.384-16.384s-16.384 7.336-16.384 16.384c0 9.048 7.335 16.384 16.384 16.384s16.384-7.336 16.384-16.384z" />
<glyph unicode="&#xe637;" d="M256 435.2c-113.152 0-204.8-91.648-204.8-204.8s91.648-204.8 204.8-204.8 204.8 91.648 204.8 204.8c0 113.152-91.648 204.8-204.8 204.8zM256 123.904c-9.216 0-16.384 7.168-16.384 16.384s7.168 16.384 16.384 16.384c9.216 0 16.384-7.168 16.384-16.384s-7.168-16.384-16.384-16.384zM288.768 236.032c-22.016-22.016-21.504-21.504-22.528-46.592h-18.432c1.024 27.648 7.168 37.376 29.184 57.344 10.752 10.24 18.432 22.016 18.432 36.864 0 23.040-18.432 38.912-40.96 38.912-31.232 0-46.592-21.504-46.080-51.2h-17.92c0.512 40.96 23.552 66.56 65.024 66.56 31.744 0 58.368-19.968 58.368-53.248-0.512-20.992-10.752-34.816-25.088-48.64z" />
<glyph unicode="&#xe638;" d="M256 435.2c0 0 0 0 0 0s0 0 0 0c-0.512 0-0.512 0 0 0-113.152-0.512-204.8-91.648-204.8-204.8s91.648-204.288 204.288-204.8c0 0 0 0 0 0s0 0 0 0 0 0 0 0c113.152 0 204.8 91.648 204.8 204.8 0.512 113.152-91.136 204.8-204.288 204.8zM264.192 312.832c21.504 0.512 43.008 3.584 62.976 8.192 6.144-24.064 9.728-52.224 10.752-82.432h-73.728v74.24zM264.192 329.216v88.064c22.016-6.144 44.544-35.328 58.88-80.896-18.944-4.096-38.912-6.656-58.88-7.168zM247.808 417.792v-88.576c-20.48 0.512-39.936 3.072-59.392 7.68 14.336 45.568 37.376 75.264 59.392 80.896zM247.808 312.832v-74.24h-74.24c0.512 30.72 4.608 58.368 10.752 82.432 20.48-5.12 41.472-7.68 63.488-8.192zM157.184 238.592h-89.6c2.048 41.984 17.408 80.896 42.496 111.104 18.432-10.24 37.376-18.432 57.856-24.576-6.144-25.6-10.24-55.296-10.752-86.528zM157.184 222.208c0.512-31.232 4.608-60.928 11.264-87.040-20.48-6.144-39.424-14.336-57.856-24.576-25.088 30.72-40.96 69.12-42.496 111.104h89.088zM173.568 222.208h74.24v-73.728c-22.016-0.512-43.008-3.584-63.488-8.704-6.144 24.064-10.24 51.712-10.752 82.432zM247.808 132.096v-88.576c-22.016 5.632-45.056 35.328-59.392 80.896 19.456 4.096 38.912 6.656 59.392 7.68zM264.192 43.52v88.576c19.968-0.512 39.936-3.072 58.88-7.68-14.336-45.568-36.864-75.264-58.88-80.896zM264.192 148.48v73.728h73.728c-0.512-30.72-4.608-58.368-10.752-82.432-19.968 5.12-41.472 7.68-62.976 8.704zM354.304 222.208h89.6c-2.048-41.984-17.408-80.896-42.496-111.104-18.432 10.24-37.888 18.432-58.368 24.576 6.656 26.112 10.752 55.296 11.264 86.528zM354.304 238.592c-0.512 31.232-4.608 60.416-11.264 86.528 20.48 6.144 39.936 14.336 58.368 24.576 25.088-30.72 40.96-69.12 42.496-111.104h-89.6zM390.144 362.496c-16.384-8.704-33.28-15.872-51.712-21.504-9.728 30.72-23.040 55.808-38.912 72.704 35.328-8.704 66.56-26.624 90.624-51.2zM211.456 413.696c-15.872-16.384-29.184-41.472-38.912-72.192-17.92 5.632-34.816 12.288-51.2 20.992 24.576 24.576 55.296 42.496 90.112 51.2zM121.856 98.304c16.384 8.704 33.28 15.872 51.2 20.992 9.728-30.72 23.040-55.808 38.912-72.192-35.328 8.704-66.048 26.624-90.112 51.2zM300.032 47.104c15.872 16.384 29.184 41.472 38.912 72.704 17.92-5.632 35.328-12.8 51.712-21.504-24.576-24.576-55.808-43.008-90.624-51.2z" />
<glyph unicode="&#xe639;" d="M256 435.2c0 0 0 0 0 0s0 0 0 0c-0.512 0-0.512 0 0 0-113.152-0.512-204.8-91.648-204.8-204.8s91.648-204.288 204.288-204.8c0 0 0 0 0 0s0 0 0 0 0 0 0 0c113.152 0 204.8 91.648 204.8 204.8 0.512 113.152-91.136 204.8-204.288 204.8zM256 41.984c0 0 0 0 0 0s0 0 0 0c-0.512 0-0.512 0 0 0-104.448 0.512-188.416 84.48-188.416 188.416s83.968 188.416 187.904 188.416c0 0 0 0 0 0s0 0 0 0 0 0 0 0c103.936 0 188.416-84.48 188.416-188.416 0.512-103.936-83.968-188.416-187.904-188.416zM321.024 313.344c-18.432-4.608-37.376-7.168-56.832-7.68v-67.072h66.56c-0.512 27.648-4.096 52.736-9.728 74.752zM264.192 401.408v-80.384c18.432 0.512 35.84 3.072 52.736 7.168-12.8 40.448-32.768 67.072-52.736 73.216zM194.56 327.68c17.408-4.096 34.816-6.656 53.248-7.168v80.896c-19.968-5.632-40.448-32.768-53.248-73.728zM378.88 351.232c-22.528 22.528-50.688 38.912-82.432 46.592 14.336-14.848 26.624-37.888 35.328-66.048 16.384 4.608 32.256 11.264 47.104 19.456zM346.112 238.592h81.92c-2.048 38.4-15.872 73.216-38.912 100.864-16.896-9.216-34.816-16.896-53.248-22.528 5.632-23.552 9.216-50.176 10.24-78.336zM180.736 238.592h67.072v67.072c-19.968 0.512-38.912 3.072-57.344 7.68-5.632-22.016-9.216-47.104-9.728-74.752zM330.752 222.208h-66.56v-67.072c19.456-0.512 38.912-3.072 56.832-7.68 5.632 22.016 9.216 47.104 9.728 74.752zM190.464 147.456c18.432 4.608 37.888 7.168 57.344 7.68v67.072h-67.072c0.512-27.648 4.096-52.736 9.728-74.752zM247.808 59.392v80.896c-18.432-0.512-36.352-3.072-53.248-7.168 12.8-40.96 33.28-68.096 53.248-73.728zM295.936 62.976c31.744 7.68 60.416 24.064 82.432 46.592-14.848 8.192-30.72 14.336-47.104 19.456-8.192-28.16-20.48-51.2-35.328-66.048zM215.552 397.824c-31.744-7.68-59.904-24.064-81.92-46.592 14.848-7.68 30.208-14.336 46.592-19.456 8.192 28.16 20.48 50.688 35.328 66.048zM335.872 143.872c18.944-5.632 36.352-13.312 53.248-22.528 23.040 27.648 36.864 62.976 38.912 100.864h-81.92c-1.024-28.16-4.608-54.784-10.24-78.336zM264.192 140.288v-80.896c19.968 6.144 39.936 32.768 52.736 73.728-16.896 4.096-34.304 6.656-52.736 7.168zM175.616 317.44c-18.432 5.632-36.352 13.312-52.736 22.528-23.040-27.648-36.864-62.976-38.912-100.864h81.408c1.024 27.648 4.608 54.272 10.24 78.336zM165.376 222.208h-81.408c2.048-38.4 15.872-73.216 38.912-100.864 16.896 9.216 34.304 16.896 52.736 22.528-5.632 23.552-9.216 50.176-10.24 78.336zM133.12 109.568c22.016-22.528 50.176-38.912 81.92-46.592-14.336 14.848-26.624 37.888-35.328 66.048-15.872-4.608-31.744-11.264-46.592-19.456z" />
<glyph unicode="&#xe63a;" d="M254.976 155.648l12.288-11.776 86.528 86.528-86.528 86.528-12.288-11.776 66.56-66.048h-270.336v-17.408h270.336zM136.704 272.896h16.896v111.104h290.304v-307.2h-290.304v111.104h-16.896v-128h324.096v340.992h-324.096z" />
<glyph unicode="&#xe63b;" d="M136.704 221.696h184.832l-66.56-66.048 12.288-11.776 86.528 86.528-86.528 86.528-12.288-11.776 66.56-66.048h-184.832v161.792h324.096v-340.992h-324.096z" />
<glyph unicode="&#xe63c;" d="M441.344 316.928l-105.984 118.272h-264.704v-409.6h370.688v291.328zM330.24 142.848h-38.4v72.704l-23.040-51.2h-20.48l-23.040 51.2v-72.704h-37.888v138.24h41.472l29.696-65.024 30.208 65.024h41.472v-138.24z" />
<glyph unicode="&#xe63d;" d="M330.752 424.96l100.352-112.128v-276.992h-350.208v389.12h249.856zM258.56 240.64l-20.48 44.544-2.56 6.144h-58.368v-158.72h58.368v35.328l3.584-7.68 2.56-6.144h33.792l2.56 6.144 3.584 7.68v-35.328h58.368v158.72h-58.368l-2.56-6.144-20.48-44.544zM335.36 435.2h-264.704v-409.6h370.688v291.328l-105.984 118.272zM258.56 216.064l30.208 65.024h41.472v-138.24h-38.4v72.704l-23.040-51.2h-20.48l-23.040 51.2v-72.704h-37.888v138.24h41.472l29.696-65.024z" />
<glyph unicode="&#xe63e;" d="M441.344 316.928l-105.984 118.272h-264.704v-409.6h370.688v291.328zM321.536 148.992h-36.864l-20.992 37.376-20.992-37.376h-36.864l39.936 61.44-41.472 62.976h36.352l22.528-39.424 22.528 39.424h36.864l-41.472-62.976 40.448-61.44z" />
<glyph unicode="&#xe63f;" d="M330.752 424.96l100.352-112.128v-276.992h-350.208v389.12h249.856zM263.168 254.976l-13.824 24.064-3.072 5.12h-61.44l10.24-15.872 37.888-57.344-36.352-55.808-10.24-15.872h61.952l3.072 5.12 12.288 21.504 12.288-21.504 3.072-5.12h61.952l-10.24 15.872-36.352 55.808 37.888 57.344 10.24 15.872h-62.976l-3.072-5.12-13.312-24.064zM335.36 435.2h-264.704v-409.6h370.688v291.328l-105.984 118.272zM263.168 233.984l22.528 39.424h36.864l-41.472-62.976 39.936-61.44h-36.864l-20.992 37.376-20.992-37.376h-36.864l39.936 61.44-41.472 62.976h36.864l22.528-39.424z" />
<glyph unicode="&#xe640;" d="M449.536 90.624l-80.896 80.896 10.752 10.752-10.752 10.752-32.256-32.256-53.76 54.272 65.024 65.024c8.704-3.072 17.92-4.608 27.136-4.608 21.504 0 41.472 8.192 56.832 23.552 23.552 23.552 29.696 57.856 16.896 88.576l-4.608 10.24-34.816-34.816-28.16-0.512 0.512 26.624 35.328 35.328-10.24 4.608c-10.24 4.608-20.992 6.656-31.744 6.656-21.504 0-41.472-8.192-56.32-23.552-22.016-22.016-29.184-54.272-18.944-83.456l-65.536-65.536-91.648 92.16 10.752 10.752-59.392 58.88-32.256-32.256 59.392-59.392 10.752 10.752 91.648-91.648-65.024-64.512c-8.704 3.072-17.92 4.608-27.136 4.608-21.504 0-41.472-8.192-56.32-23.552-23.552-23.552-30.208-57.856-16.896-88.576l4.608-10.24 35.328 35.328 26.624 0.512-0.512-28.16-34.816-34.816 10.24-4.608c10.24-4.096 20.992-6.656 31.744-6.656 21.504 0 41.472 8.192 56.32 23.552 22.016 22.016 29.184 54.272 18.944 83.456l65.024 65.024 53.76-53.76-31.744-32.256 10.752-10.752 10.752 10.752 80.896-80.896c7.168-7.168 16.896-11.264 27.136-11.264s19.968 4.096 27.136 11.264c14.336 14.848 14.336 38.912-0.512 53.76zM82.944 392.704l10.752 10.752 37.888-37.888-10.752-10.752-37.888 37.888zM190.976 138.24c10.752-24.576 5.12-52.736-13.824-71.68-12.288-12.288-28.672-18.944-45.568-18.944-5.12 0-9.728 0.512-14.848 1.536l22.528 22.528 0.512 49.664-48.64-0.512-23.040-23.040c-5.12 21.504 1.024 44.544 17.408 60.416 12.288 12.288 28.672 18.944 45.568 18.944 9.216 0 17.408-2.048 25.6-5.12l4.608-2.048 154.624 154.624-2.048 4.608c-10.752 24.576-5.12 52.736 13.824 71.68 12.288 12.288 28.672 18.944 45.568 18.944 5.12 0 9.728-0.512 14.848-1.536l-23.040-23.040-0.512-48.64 49.664 0.512 22.528 22.528c5.12-21.504-1.024-44.544-17.408-60.416-12.288-12.288-28.672-18.944-45.568-18.944-8.704 0-17.408 1.536-25.6 5.12l-4.608 2.048-154.624-154.624 2.048-4.608zM438.784 47.616c-4.096-4.096-10.24-6.656-16.384-6.656s-11.776 2.56-16.384 6.656l-80.384 80.896 32.256 32.256 80.896-80.896c9.216-8.704 9.216-23.552 0-32.256z" />
<glyph unicode="&#xe641;" d="M452.608 92.16l-80.896 80.896 10.752 10.752-10.752 10.752-32.256-32.256-54.272 53.76 65.024 65.024c8.704-3.072 17.92-4.608 27.136-4.608 21.504 0 41.472 8.192 56.832 23.552 23.552 23.552 29.696 57.856 16.896 88.576l-4.608 10.24-35.328-35.328-28.16-0.512 0.512 26.624 35.328 35.328-10.24 4.608c-10.24 4.608-20.992 6.656-31.744 6.656-21.504 0-41.472-8.192-56.32-23.552-22.016-22.016-29.184-54.272-18.944-83.456l-65.024-64.512-91.648 91.648 10.752 10.752-59.392 59.392-32.256-32.256 59.392-59.392 10.752 10.752 91.648-91.648-64.512-65.024c-8.704 3.072-17.92 4.608-27.136 4.608-21.504 0-41.472-8.192-56.32-23.552-23.552-23.552-30.208-57.856-16.896-88.576l4.608-10.24 35.328 35.328 26.624 0.512-0.512-28.16-34.816-34.304 10.24-4.608c10.24-4.096 20.992-6.656 31.744-6.656 21.504 0 41.472 8.192 56.32 23.552 22.016 22.016 29.184 54.272 18.944 83.456l65.024 65.024 53.76-53.76-32.256-32.256 10.752-10.752 10.752 10.752 80.896-80.896c7.168-7.168 16.896-11.264 27.136-11.264s19.968 4.096 27.136 11.264c14.848 14.336 14.848 38.912 0 53.76z" />
<glyph unicode="&#xe642;" d="M361.472 238.080v94.72c0 56.32-46.080 102.4-102.4 102.4s-102.4-46.080-102.4-102.4v-94.72h-55.296v-212.48h314.88v212.48h-54.784zM172.032 332.8c0 47.616 38.912 86.528 86.528 86.528s86.528-38.912 86.528-86.528v-94.72h-173.056v94.72z" />
<glyph unicode="&#xe643;" d="M358.4 238.080v94.72c0 56.32-46.080 102.4-102.4 102.4s-102.4-46.080-102.4-102.4v-94.72h-55.296v-212.48h314.88v212.48h-54.784zM169.472 332.8c0 47.616 38.912 86.528 86.528 86.528s86.528-38.912 86.528-86.528v-94.72h-173.056v94.72zM397.824 41.472h-283.648v181.248h283.648v-181.248z" />
<glyph unicode="&#xe644;" d="M149.504 435.2v-229.376h-98.304c0 0 0-101.376 0-134.144s30.72-46.080 53.248-46.080c22.528 0 249.856 0 307.2 0 25.088 0 49.152 24.064 49.152 49.152 0 17.92 0 360.448 0 360.448h-311.296zM104.448 41.984c-10.24 0-36.864 5.12-36.864 29.696v117.76h81.92v-110.592c0-10.752-14.336-36.864-36.864-36.864h-8.192zM444.416 74.752c0-15.872-16.896-32.768-32.768-32.768h-263.168c11.264 11.264 17.408 26.624 17.408 36.864v339.968h278.528v-344.064zM198.656 386.048h212.992v-16.384h-212.992v16.384zM198.656 164.864h212.992v-16.384h-212.992v16.384zM198.656 107.52h212.992v-16.384h-212.992v16.384zM411.648 328.704h-212.992v-122.88h212.992v122.88zM395.264 222.208h-180.224v90.112h180.224v-90.112z" />
<glyph unicode="&#xe645;" d="M133.12 205.824h-81.92c0 0 0-101.376 0-134.144 0-29.184 24.064-43.008 45.568-45.568 21.504 2.56 36.352 19.968 36.352 35.84v143.872zM149.504 435.2v-373.248c0-12.8-6.144-26.112-16.384-36.352 68.096 0 230.912 0 278.528 0 25.088 0 49.152 24.064 49.152 49.152 0 17.92 0 360.448 0 360.448h-311.296zM411.648 91.136h-212.992v16.384h212.992v-16.384zM411.648 148.48h-212.992v16.384h212.992v-16.384zM411.648 205.824h-212.992v122.88h212.992v-122.88zM411.648 369.664h-212.992v16.384h212.992v-16.384z" />
<glyph unicode="&#xe646;" d="M461.312 46.080l-118.272 118.272c23.552 28.672 37.888 65.024 37.888 105.472 0 91.136-73.728 164.864-164.864 164.864s-164.864-73.728-164.864-164.864c0-91.136 73.728-164.864 164.864-164.864 39.936 0 76.8 14.336 105.472 37.888l118.272-118.272 21.504 21.504zM69.12 269.824c0 81.408 66.048 147.456 147.456 147.456s147.456-66.048 147.456-147.456-66.048-147.456-147.456-147.456c-81.408 0-147.456 66.048-147.456 147.456zM283.136 262.656h-62.464v-61.952h-8.704v61.952h-61.952v9.216h61.952v61.952h8.704v-61.952h62.464zM225.28 196.608h-17.408v61.952h-61.952v17.408h61.952v62.464h17.408v-62.464h62.464v-17.408h-62.464v-61.952zM216.576 205.312v0 0z" />
<glyph unicode="&#xe647;" d="M461.312 46.080l-118.272 118.272c23.552 28.672 37.888 65.024 37.888 105.472 0 91.136-73.728 164.864-164.864 164.864s-164.864-73.728-164.864-164.864c0-91.136 73.728-164.864 164.864-164.864 39.936 0 76.8 14.336 105.472 37.888l118.272-118.272 21.504 21.504zM69.12 269.824c0 81.408 66.048 147.456 147.456 147.456s147.456-66.048 147.456-147.456-66.048-147.456-147.456-147.456c-81.408 0-147.456 66.048-147.456 147.456zM207.872 275.968h-61.952v-16.896h141.824v16.896h-62.464z" />
<glyph unicode="&#xe648;" d="M219.648 202.24l-0.512 23.552h-103.936l43.008 43.008-16.384 16.384-70.656-70.656 70.656-70.656 16.384 16.384-41.984 41.984zM377.856 284.672l-16.384-16.384 41.984-42.496h-103.424v-23.040h104.448l-43.008-43.008 16.384-16.384 70.656 70.656zM271.36 70.656v103.424l-23.040-0.512v-103.936l-43.008 43.008-16.384-16.384 70.656-70.656 70.656 70.656-16.384 16.384zM205.824 315.392l41.984 42.496v-103.424h23.552v104.448l43.008-43.52 16.384 16.384-70.656 70.656-70.656-70.656zM63.488 421.376l40.448-123.904 80.384 76.288z" />
<glyph unicode="&#xe649;" d="M51.2 398.336h29.696v7.168h7.168v29.696h-36.864zM232.448 435.2h46.592v-29.696h-46.592v29.696zM168.96 435.2h46.592v-29.696h-46.592v29.696zM105.472 435.2h46.592v-29.696h-46.592v29.696zM296.448 435.2h46.592v-29.696h-46.592v29.696zM359.936 435.2h46.592v-29.696h-46.592v29.696zM423.936 435.2v-29.696h7.168v-7.168h29.696v36.864zM431.104 253.952h29.696v-46.592h-29.696v46.592zM431.104 317.44h29.696v-46.592h-29.696v46.592zM431.104 380.928h29.696v-46.592h-29.696v46.592zM232.448 55.296h46.592v-29.696h-46.592v29.696zM168.96 55.296h46.592v-29.696h-46.592v29.696zM105.472 55.296h46.592v-29.696h-46.592v29.696zM80.896 62.464h-29.696v-36.864h36.864v29.696h-7.168zM51.2 317.44h29.696v-46.592h-29.696v46.592zM51.2 380.928h29.696v-46.592h-29.696v46.592zM51.2 126.464h29.696v-46.592h-29.696v46.592zM51.2 189.952h29.696v-46.592h-29.696v46.592zM51.2 253.952h29.696v-46.592h-29.696v46.592zM444.416 146.944v29.696h-127.488v-128h29.696v76.288l93.696-93.696 20.48 21.504-94.208 94.208z" />
<glyph unicode="&#xe64a;" d="M371.2 230.4l-204.8 204.8-25.6-25.6 179.2-179.2-179.2-179.2 25.6-25.6z" />
<glyph unicode="&#xe64b;" d="M256 345.6l-204.8-204.8 25.6-25.6 179.2 179.2 179.2-179.2 25.6 25.6z" />
<glyph unicode="&#xe64c;" d="M140.8 230.4l204.8-204.8 25.6 25.6-179.2 179.2 179.2 179.2-25.6 25.6z" />
<glyph unicode="&#xe64d;" d="M256 115.2l204.8 204.8-25.6 25.6-179.2-179.2-179.2 179.2-25.6-25.6z" />
<glyph unicode="&#xe64e;" d="M273.317 370.823c49.694 0 90.353-40.659 90.353-90.353 0-15.812-4.141-31.624-12.047-45.177l-78.306-135.53-78.306 135.53c-7.906 13.553-12.047 29.364-12.047 45.176 0 50.071 40.282 90.353 90.353 90.353zM273.317 245.459c19.2 0 35.012 15.812 35.012 35.012s-15.812 35.012-35.012 35.012c-19.2 0-35.012-15.812-35.012-35.012-0.376-19.2 15.435-35.012 35.012-35.012zM273.317 380.988c-55.341 0-100.517-44.8-100.517-100.517 0-18.447 4.894-35.388 13.553-50.071l86.964-150.588 86.964 150.588c8.659 14.683 13.553 32 13.553 50.070-0.377 55.718-45.176 100.518-100.517 100.518v0zM273.317 255.624c-13.93 0-25.224 11.294-25.224 25.223s11.294 25.224 25.224 25.224c13.93 0 25.224-11.294 25.224-25.224-0.377-13.929-11.671-25.223-25.224-25.223v0z" horiz-adv-x="547" />
<glyph unicode="&#xe64f;" d="M273.317 380.988c-55.341 0-100.517-44.8-100.517-100.517 0-18.447 4.894-35.388 13.553-50.071l86.964-150.588 86.964 150.588c8.659 14.683 13.553 32 13.553 50.070-0.377 55.718-45.176 100.518-100.517 100.518zM273.317 255.624c-13.93 0-25.224 11.294-25.224 25.223s11.294 25.224 25.224 25.224c13.93 0 25.224-11.294 25.224-25.224-0.377-13.929-11.671-25.223-25.224-25.223z" horiz-adv-x="547" />
<glyph unicode="&#xe650;" d="M346.112 388.608v9.728c0 20.48-16.384 36.864-36.864 36.864h-108.032c-20.48 0-36.864-16.384-36.864-36.864v-9.728h-56.32v-363.008h296.448v363.008h-58.368zM201.216 292.864h108.032c20.48 0 36.864 16.384 36.864 36.864v44.032h44.032v-101.376h-267.776v101.888h41.984v-44.032c0-20.48 16.384-37.376 36.864-37.376zM201.216 420.864h108.032c12.288 0 22.528-10.24 22.528-22.528v-68.608c0-12.288-10.24-22.528-22.528-22.528h-108.032c-12.288 0-22.528 10.24-22.528 22.528v68.608c0 12.288 10.24 22.528 22.528 22.528zM122.368 39.936v213.504h267.776v-213.504h-267.776z" />
<glyph unicode="&#xe651;" d="M284.672 184.32c29.696 12.288 50.688 40.96 50.688 74.752 0 44.544-36.352 80.896-80.896 80.896-39.424 0-72.192-28.16-79.36-65.536-18.944 15.872-30.72 38.912-30.72 65.536 0 47.104 38.4 84.992 84.992 84.992s84.992-38.4 84.992-84.992c0-3.584-0.512-7.68-1.024-11.264l8.192-8.704c1.536 6.144 2.048 12.8 2.048 19.968 0.512 52.736-41.984 95.232-94.208 95.232s-94.72-42.496-94.72-94.72c0-31.232 15.36-58.88 38.912-76.288 0-1.536 0-3.072 0-4.608 0-33.792 20.992-62.976 50.688-74.752v-126.976l31.232-31.744 29.696 37.888v120.32zM275.456 67.072l-20.992-27.136-20.992 21.504v130.048c-28.672 8.704-49.664 35.328-50.176 67.072 13.824-7.68 29.696-12.288 46.592-12.288 2.048 0 3.584 0 5.632 0 4.096-6.656 11.264-11.264 19.456-11.264 12.288 0 22.528 10.24 22.528 22.528s-10.24 22.528-22.528 22.528c-12.288 0-22.528-10.24-22.528-22.528 0-0.512 0-1.536 0-2.048-1.024 0-1.536 0-2.56 0-16.896 0-32.768 5.12-46.080 13.312 4.608 34.816 34.816 61.952 70.656 61.952 39.424 0 71.68-32.256 71.68-71.68 0-31.744-20.992-58.88-49.664-68.096l-1.024-123.904zM241.152 256c0 0.512 0 1.024 0 1.536 0 7.168 6.144 13.312 13.312 13.312s13.312-6.144 13.312-13.312c0-7.168-6.144-13.312-13.312-13.312-3.072 0-6.144 1.024-8.192 3.072 4.608 1.024 9.728 2.048 13.824 3.584l-3.072 9.216c-5.12-2.048-10.24-3.072-15.872-4.096zM346.112 141.824v0zM337.92 194.56c24.064 20.992 34.304 55.296 23.552 87.040-6.144 17.92-18.432 32.256-33.28 41.984 0-3.584 0-7.168-0.512-10.752 11.264-8.192 19.968-19.968 25.088-33.792 10.24-30.208-0.512-62.464-24.576-80.384l39.424-118.272-11.264-32.256-26.624 13.312-39.424 115.2v-29.184l31.744-92.672 39.936-19.968 15.872 45.568-39.936 114.176z" />
<glyph unicode="&#xe652;" d="M264.704 344.576c5.12 23.552 23.040 77.312 85.504 77.312 3.584 0 6.656 3.072 6.656 6.656s-3.072 6.656-6.656 6.656c-73.728 0-94.208-65.536-99.328-90.624-76.8-2.56-138.24-62.976-142.848-139.264h296.448c-4.608 75.264-65.024 134.656-139.776 139.264zM262.144 331.264c63.488-3.072 116.736-50.176 126.976-112.128h-266.24c10.24 62.464 63.488 109.568 126.976 112.128h12.288zM185.344 176.128c-3.584 0-6.656-3.072-6.656-6.656v-111.104c0-3.584 3.072-6.656 6.656-6.656s6.656 3.072 6.656 6.656v111.104c0 3.584-3.072 6.656-6.656 6.656zM248.832 125.952c-3.584 0-6.656-3.072-6.656-6.656v-87.040c0-3.584 3.072-6.656 6.656-6.656s6.656 3.072 6.656 6.656v87.040c0 3.584-3.072 6.656-6.656 6.656zM312.32 179.712c-3.584 0-6.656-3.072-6.656-6.656v-55.296c0-3.584 3.072-6.656 6.656-6.656s6.656 3.072 6.656 6.656v55.296c0 3.584-3.072 6.656-6.656 6.656z" />
<glyph unicode="&#xe653;" d="M377.344 232.448c-0.512 1.024-1.024 2.048-1.536 3.072l-102.912 171.008-16.896 28.672-16.896-28.672-103.424-172.032c-0.512-0.512-0.512-1.024-0.512-1.536-11.776-20.992-17.92-44.544-17.92-68.096-0.512-76.8 61.952-139.264 138.752-139.264s139.264 62.464 139.264 139.264c0 23.552-6.144 46.592-17.92 67.584zM256 40.448c-68.608 0-124.416 55.808-124.416 124.416 0 21.504 5.632 43.52 16.896 62.464 0 0.512 0.512 0.512 0.512 1.024l107.008 178.176 107.008-178.688c0-0.512 0.512-0.512 0.512-1.024 10.752-18.944 16.896-40.448 16.896-62.464 0-68.096-55.808-123.904-124.416-123.904z" />
<glyph unicode="&#xe654;" d="M195.584 395.264v39.936h-144.384v-144.384h39.936v75.776l102.4-102.4 28.672 28.672-102.4 102.4zM316.416 435.2v-39.936h75.776l-102.4-102.4 28.672-28.672 102.4 102.4v-75.776h39.936v144.384zM193.536 196.608l-102.4-102.4v75.776h-39.936v-144.384h144.384v39.936h-75.776l102.4 102.4zM420.864 94.208l-102.4 102.4-28.672-28.672 102.4-102.4h-75.776v-39.936h144.384v144.384h-39.936z" />
<glyph unicode="&#xe655;" d="M316.928 170.496h-130.048v-144.384h28.672v115.712h130.048v129.536h115.2v28.672h-143.872zM443.392 330.752h17.408v-17.408h-17.408v17.408zM443.392 434.688h17.408v-17.408h-17.408v17.408zM443.392 365.568h17.408v-17.408h-17.408v17.408zM443.392 399.872h17.408v-17.408h-17.408v17.408zM51.2 43.52h17.408v-17.408h-17.408v17.408zM85.504 43.52h17.408v-17.408h-17.408v17.408zM120.32 43.52h17.408v-17.408h-17.408v17.408zM154.624 43.52h17.408v-17.408h-17.408v17.408z" />
<glyph unicode="&#xe656;" d="M459.264 263.168l-15.872-15.872-187.392 187.904-187.904-187.904-15.36 15.36-32.768-32.256 32.768-32.768 15.872 15.872 187.392-187.904 187.904 187.904 15.872-15.872 32.768 32.768-33.28 32.768zM52.736 200.192l-30.208 30.208 30.208 30.208 14.336-14.336-15.872-15.872 15.872-15.872-14.336-14.336zM53.76 230.4l14.336 14.336 14.336-14.336-14.336-14.336-14.336 14.336zM256 28.16l-186.368 186.368 15.872 15.872-15.872 15.872 186.368 186.368 186.368-186.368-15.872-15.872 15.872-15.872-186.368-186.368zM429.568 230.4l14.336 14.336 14.336-14.336-14.336-14.336-14.336 14.336zM444.928 214.528l15.872 15.872-15.872 15.872 14.336 14.336 30.208-30.208-30.208-30.208-14.336 14.336zM336.896 288.256c0 6.144-2.048 10.24-2.048 10.24-2.56 6.144-8.192 9.216-15.36 9.216-9.728 0-19.968-5.12-20.48-5.632h-0.512c-7.68 8.192-17.92 12.288-30.72 12.288-4.096 0-8.192-0.512-12.288-1.536v0 0c-2.048 0.512-7.68 1.536-14.336 1.536-9.728 0-22.528-2.048-32.256-12.8v-0.512h-0.512c-0.512 0-10.752 5.632-20.48 5.632-7.168 0-12.8-3.072-15.36-9.216 0 0-2.048-4.096-2.56-10.24s0.512-15.36 8.192-27.136c0.512-0.512 7.68-16.896 1.024-33.28 0 0-10.24-23.040-7.168-55.808v0 0c2.56-1.536 9.216-6.144 20.992-10.24 14.336-5.12 30.208-7.68 47.616-8.192h3.072l-17.92 5.632v1.024c3.072-0.512 24.064-4.096 48.128-4.096 10.24 0 19.456 0.512 28.16 1.536l3.584 0.512-14.336 1.536v1.024c0 0 0.512 0 0.512 0 4.608 0 27.648 0.512 43.52 10.24l0.512 0.512v17.408c-1.536 22.528-7.68 38.912-7.68 39.424-6.656 16.384-0.512 32.768 0 33.792 7.168 11.776 8.704 20.992 8.704 27.136zM311.808 202.24h1.024v-3.072h-1.536c0.512 1.024 0.512 2.56 0.512 3.072zM273.408 258.56c0 0.512 4.096 9.216 10.24 9.216 2.56 0 5.12-1.536 7.68-4.608v0 0c0 0-2.56-5.12-11.264-5.12-2.048 0-4.096 0-6.144 0.512h-0.512zM270.336 257.536l1.024-0.512c-0.512-2.048-1.024-9.728 7.168-23.040 0.512-0.512 10.752-18.944 1.536-33.792-0.512-0.512-7.168-12.288-19.968-12.8h-2.56l2.56 1.024c0 0 4.608 2.048 9.216 5.632v0l1.536 1.536c4.608 4.608 10.24 11.776 8.704 21.504 0 0-1.024 8.192-5.632 16.384-0.512 0.512-7.68 12.288-3.584 24.064zM249.344 221.184c1.024 0 2.048 0 3.072 0 0.512 0 1.024 0 1.536 0h2.56c0.512 0 0.512 0 1.024 0 1.024 0 2.048 0 3.072 0 2.048 0 9.216 0 9.216-5.632 0 0 0-4.096-3.072-7.168-2.048-2.048-5.632-3.584-9.728-3.584h-0.512v-4.096h0.512c7.168-0.512 12.288-2.048 12.288-3.584 0 0 0-0.512 0-1.024v-0.512h-0.512c-0.512 0-1.024 0-2.048 0 0 0-5.632 2.56-11.776 2.56s-11.776-2.56-11.776-2.56c-1.536-0.512-2.048 0-2.56 0.512s0 1.024 0 1.024c0.512 1.536 5.12 3.072 12.288 3.584h0.512v4.096h-0.512c-4.096 0-7.68 1.536-9.728 3.584-2.56 3.072-2.56 7.168-2.56 7.168 0 5.12 5.12 5.632 8.704 5.632zM238.592 257.536c4.096-11.776-3.584-23.552-3.584-24.064-4.608-8.192-5.632-16.384-5.632-16.384-2.56-18.944 19.456-28.16 19.456-28.16l2.56-1.024h-2.56c-12.288 1.024-19.456 12.288-19.968 12.8-9.216 14.848 1.536 32.768 1.536 33.792 8.704 13.312 7.68 20.992 7.168 23.040h1.024zM218.112 263.68c2.56 3.072 5.12 4.608 7.68 4.608 6.144 0 10.24-8.704 10.24-9.216v-0.512h-0.512c-2.048-0.512-4.096-0.512-6.144-0.512-9.216-0.512-11.264 4.608-11.264 5.632v0 0zM183.296 284.672l-1.024 1.536 5.12-3.584-0.512 1.536c-2.048 5.12-6.144 9.728-6.144 10.24l-0.512 1.024h1.024c4.096-0.512 7.168-2.048 9.216-4.608 4.096-5.12 3.584-12.8 3.584-13.824 0-2.048-0.512-3.584-1.536-3.584-2.048-0.512-5.632 4.096-9.216 11.264zM248.32 172.544c-1.536 0-2.56 0-4.096 0-26.624 0-41.472 20.48-46.592 29.184l-1.536 2.56 0.512-3.072c0.512-1.536 1.024-3.584 1.536-5.632l0.512-1.024-1.024 0.512c-7.68 5.12-7.68 18.944-7.68 19.456 0 2.048 0 2.56 0.512 3.072 0 0 0.512 0 0.512 0 0.512 0 1.536 0 5.12-12.8v-0.512l1.024 0.512c10.752-15.872 26.112-23.552 34.816-26.624l2.048-1.024-2.048 1.536c-6.656 6.144-11.776 15.36-12.8 17.408l1.024 0.512c11.264-16.896 28.16-23.040 28.672-23.040l2.048-0.512-2.56-0.512zM268.288 185.856c0 0-4.608-5.632-12.288-5.632-3.584 0-7.168 1.024-10.752 3.584l-2.56 1.536 3.072-1.024c0.512 0 4.608-1.024 9.216-1.024 5.12 0 9.728 1.024 13.312 3.072l2.048 1.024-2.048-1.536zM309.248 183.808l-1.024-0.512 1.024 9.728-1.024-1.024c-6.144-8.192-16.384-17.408-32.768-17.408-1.024 0-2.048 0-3.072 0h-2.048l2.048 0.512c0 0 13.312 5.12 21.504 17.408l1.024-0.512c-1.024-1.536-4.096-8.192-8.704-12.288l-1.536-1.536 2.048 1.024c5.632 2.048 15.872 7.68 23.552 17.92 0.512 0.512 0.512 1.536 1.024 2.048l1.536-0.512-0.512-6.144 1.024 2.56c2.56 6.656 3.072 17.92 3.072 19.456v2.048l1.024-2.048c6.656-17.408-8.192-30.72-8.192-30.72zM326.144 293.888c0 0-4.096-5.12-6.144-10.24l-0.512-1.536 5.12 3.584-1.024-1.536c-3.584-7.168-7.168-11.776-9.216-11.776-1.024 0-1.536 1.024-1.536 3.584 0 1.024-1.024 8.704 3.584 13.824 2.048 2.56 5.12 4.096 9.216 4.608h1.024l-0.512-0.512z" />
<glyph unicode="&#xe657;" d="M459.264 263.168l-15.872-15.872-187.392 187.904-187.904-187.904-15.36 15.36-32.768-32.256 32.768-32.768 15.872 15.872 187.392-187.904 187.904 187.904 15.872-15.872 32.768 32.768-33.28 32.768zM52.736 200.192l-30.208 30.208 30.208 30.208 14.336-14.336-15.872-15.872 15.872-15.872-14.336-14.336zM53.76 230.4l14.336 14.336 14.336-14.336-14.336-14.336-14.336 14.336zM256 28.16l-186.368 186.368 15.872 15.872-15.872 15.872 186.368 186.368 186.368-186.368-15.872-15.872 15.872-15.872-186.368-186.368zM429.568 230.4l14.336 14.336 14.336-14.336-14.336-14.336-14.336 14.336zM444.928 214.528l15.872 15.872-15.872 15.872 14.336 14.336 30.208-30.208-30.208-30.208-14.336 14.336zM201.728 241.152h4.608v-5.12h-4.608v5.12zM192.512 241.152h4.608v-5.12h-4.608v5.12zM210.432 241.152h5.12v-5.12h-5.12v5.12zM207.36 230.4h-11.264v-10.752zM215.040 230.4h-5.632l-13.312-13.312v-22.016c6.144 6.656 12.288 12.288 19.456 16.896v18.432zM258.56 316.416l51.712-51.712 3.072 3.072-15.36 15.36v26.624h-17.408v-9.216l-22.016 22.016-54.784-54.784 3.072-3.072zM301.568 214.016v51.712l-43.008 43.008-43.52-43.008v-20.992h-26.624v-14.336h4.096v-39.424c-3.072-3.584-5.632-7.168-8.192-11.264h168.96c-11.264 6.144-24.064 14.848-37.888 25.088-4.096 3.584-9.216 6.656-13.824 9.216zM244.736 264.704h24.576v-14.336h-24.576v14.336zM215.040 236.032h-5.12v5.12h5.12v-5.12zM201.728 236.032v5.12h4.608v-5.12h-4.608zM192.512 241.152h4.608v-5.12h-4.608v5.12zM207.36 230.4l-11.264-11.264v11.264h11.264zM196.096 195.072v22.016l13.312 13.312h5.632v-18.944c-6.656-4.096-12.8-9.728-18.944-16.384zM336.896 197.632h24.064c-21.504 28.672-54.784 19.968-54.784 19.968l30.72-19.968zM283.136 332.288c0 0 5.632-4.096 0-9.728 0 0 7.68 4.608 3.072 11.776-4.608 6.656 2.56 16.384 2.56 16.384s7.168 12.288-5.632 12.8c-6.656 0.512-15.872-16.896 0-31.232z" />
<glyph unicode="&#xe658;" d="M459.264 263.168l-15.872-15.872-187.392 187.904-187.904-187.904-15.36 15.36-32.768-32.256 32.768-32.768 15.872 15.872 187.392-187.904 187.904 187.904 15.872-15.872 32.768 32.768-33.28 32.768zM52.736 200.192l-30.208 30.208 30.208 30.208 14.336-14.336-15.872-15.872 15.872-15.872-14.336-14.336zM53.76 230.4l14.336 14.336 14.336-14.336-14.336-14.336-14.336 14.336zM256 28.16l-186.368 186.368 15.872 15.872-15.872 15.872 186.368 186.368 186.368-186.368-15.872-15.872 15.872-15.872-186.368-186.368zM429.568 230.4l14.336 14.336 14.336-14.336-14.336-14.336-14.336 14.336zM444.928 214.528l15.872 15.872-15.872 15.872 14.336 14.336 30.208-30.208-30.208-30.208-14.336 14.336zM345.6 209.92h3.584l-11.264 19.968h4.096l-27.136 42.496-10.24-16.384 11.264-16.896 2.56-4.608h-8.192l18.944-32.768h19.968l-2.048 3.072h2.048zM307.712 182.272h10.752v-4.608h-10.752v4.608zM196.608 194.048l2.048 3.584h-6.144l2.56 4.608 19.456 32.768h-8.192l2.56 4.608 15.872 26.112-15.36 23.552-34.816-57.344h6.144l-15.872-27.136h4.608l-7.168-10.752h34.304zM203.776 175.104h14.336v7.168h-14.336zM250.88 182.272h19.968v-22.016h-19.968v22.016zM303.616 237.568h8.192l-50.688 79.36-48.128-79.872h8.192l-22.016-36.864h6.656l-9.728-14.848h129.536l-4.096 5.632h4.096l-6.656 9.216h6.656l-22.016 37.376z" />
<glyph unicode="&#xe659;" d="M465.92 230.4c0 115.712-94.208 209.92-209.92 209.92s-209.92-94.208-209.92-209.92c0-115.712 94.208-209.92 209.92-209.92s209.92 94.208 209.92 209.92zM256 37.376c-106.496 0-193.024 86.528-193.024 193.024s86.528 193.024 193.024 193.024c106.496 0 193.024-86.528 193.024-193.024s-86.528-193.024-193.024-193.024zM381.44 239.104h-117.248v116.736h-16.896v-116.736h-116.736v-16.896h116.736v-117.248h16.896v117.248h117.248z" />
<glyph unicode="&#xe65a;" d="M261.12 440.32c-115.712 0-209.92-94.208-209.92-209.92s94.208-209.92 209.92-209.92 209.92 94.208 209.92 209.92-94.208 209.92-209.92 209.92zM386.56 222.208h-117.76v-117.76h-16.896v117.76h-116.224v16.896h117.248v116.736h16.896v-117.248h117.76v-16.384z" />
<glyph unicode="&#xe65b;" d="M441.344 316.928l-105.984 118.272h-264.704v-409.6h370.688v291.328zM315.648 138.752h-152.167v152.167h123.494l-2.355-2.355-22.989-23.040-42.087-42.087v-28.621h28.006l68.147 68.147v-124.211h-0.051zM343.962 302.541l-99.789-99.789h-16.64v17.408l99.379 99.431c2.355 2.355 5.427 3.533 8.499 3.533s6.144-1.178 8.499-3.533c4.762-4.711 4.762-12.339 0.051-17.050z" />
<glyph unicode="&#xe65c;" d="M335.36 435.2l105.984-118.272v-291.328h-370.688v409.6h264.704zM227.584 202.803h16.64l99.789 99.789c4.711 4.659 4.711 12.288 0 16.999-2.355 2.355-5.427 3.533-8.499 3.533s-6.144-1.178-8.499-3.533l-99.379-99.431-0.051-17.357zM286.976 290.918h-123.495v-152.167h152.167v124.16l-68.147-68.147h-27.904v28.723l67.379 67.431zM338.125 441.344h-273.613v-421.888h382.976v299.827l-1.587 1.741-107.776 120.32zM233.728 217.6l97.587 97.639c1.127 1.127 2.56 1.741 4.147 1.741s3.021-0.615 4.147-1.741c1.127-1.127 1.741-2.56 1.741-4.147s-0.615-3.021-1.741-4.147l-97.997-97.997h-7.987v8.653h0.102zM169.625 284.774h102.553l-14.848-14.899-43.879-43.879v-37.325h36.659l59.443 59.443v-103.219h-139.929v139.879z" />
</font>
</defs>
</svg>
